<?xml version="1.0" encoding="UTF-8" standalone="no"?><!DOCTYPE svg PUBLIC "-//W3C//DTD SVG 1.1//EN" "http://www.w3.org/Graphics/SVG/1.1/DTD/svg11.dtd"><!-- Generated by graphviz version 2.40.1 (20161225.0304)
 --><!-- Title: G Pages: 1 --><svg xmlns="http://www.w3.org/2000/svg" xmlns:xlink="http://www.w3.org/1999/xlink" width="273pt" height="98pt" viewBox="0.00 0.00 273.34 98.00">
<g id="graph0" class="graph" transform="scale(1 1) rotate(0) translate(4 94)">
<title>G</title>
<polygon fill="#ffffff" stroke="transparent" points="-4,4 -4,-94 269.3431,-94 269.3431,4 -4,4"/>
<!-- start -->
<g id="node1" class="node">
<title>start</title>
</g>
<!-- DFA -->
<g id="node2" class="node">
<title>DFA</title>
<ellipse fill="none" stroke="#000000" cx="30.3475" cy="-72" rx="30.1958" ry="18"/>
<text text-anchor="middle" x="30.3475" y="-67.8" font-family="Times,serif" font-size="14.00" fill="#000000">DFA</text>
</g>
<!-- NFA -->
<g id="node3" class="node">
<title>NFA</title>
<ellipse fill="none" stroke="#000000" cx="127.0425" cy="-72" rx="30.1958" ry="18"/>
<text text-anchor="middle" x="127.0425" y="-67.8" font-family="Times,serif" font-size="14.00" fill="#000000">NFA</text>
</g>
<!-- DFA&#45;&gt;NFA -->
<g id="edge1" class="edge">
<title>DFA-&gt;NFA</title>
<path fill="none" stroke="#000000" d="M58.8362,-65.7839C68.0977,-65.2574 78.536,-65.1203 88.4103,-65.3726"/>
<polygon fill="#000000" stroke="#000000" points="88.2903,-68.8705 98.4233,-65.7765 88.5725,-61.8762 88.2903,-68.8705"/>
</g>
<!-- RE -->
<g id="node4" class="node">
<title>RE</title>
<ellipse fill="none" stroke="#000000" cx="127.0425" cy="-18" rx="27" ry="18"/>
<text text-anchor="middle" x="127.0425" y="-13.8" font-family="Times,serif" font-size="14.00" fill="#000000">RE</text>
</g>
<!-- DFA&#45;&gt;RE -->
<g id="edge3" class="edge">
<title>DFA-&gt;RE</title>
<path fill="none" stroke="#000000" d="M52.7743,-59.4756C65.9548,-52.1149 82.7844,-42.7163 97.0892,-34.7277"/>
<polygon fill="#000000" stroke="#000000" points="99.0369,-37.6488 106.0611,-29.7172 95.6238,-31.5372 99.0369,-37.6488"/>
</g>
<!-- NFA&#45;&gt;DFA -->
<g id="edge2" class="edge">
<title>NFA-&gt;DFA</title>
<path fill="none" stroke="#000000" d="M98.4233,-78.2235C89.1508,-78.7463 78.7097,-78.8798 68.8407,-78.6238"/>
<polygon fill="#000000" stroke="#000000" points="68.9705,-75.1263 58.8362,-78.2161 68.6853,-82.1205 68.9705,-75.1263"/>
</g>
<!-- εNFA -->
<g id="node5" class="node">
<title>εNFA</title>
<ellipse fill="none" stroke="#000000" cx="229.3665" cy="-72" rx="35.9531" ry="18"/>
<text text-anchor="middle" x="229.3665" y="-67.8" font-family="Times,serif" font-size="14.00" fill="#000000">εNFA</text>
</g>
<!-- NFA&#45;&gt;εNFA -->
<g id="edge5" class="edge">
<title>NFA-&gt;εNFA</title>
<path fill="none" stroke="#000000" d="M155.8178,-65.8607C164.943,-65.3298 175.2519,-65.1451 185.201,-65.3064"/>
<polygon fill="#000000" stroke="#000000" points="185.2773,-68.81 195.3741,-65.5998 185.4792,-61.8129 185.2773,-68.81"/>
</g>
<!-- RE&#45;&gt;εNFA -->
<g id="edge4" class="edge">
<title>RE-&gt;εNFA</title>
<path fill="none" stroke="#000000" d="M148.2441,-29.1888C161.9456,-36.4196 180.0734,-45.9863 195.7171,-54.242"/>
<polygon fill="#000000" stroke="#000000" points="194.111,-57.3519 204.5886,-58.9238 197.3781,-51.1611 194.111,-57.3519"/>
</g>
<!-- εNFA&#45;&gt;NFA -->
<g id="edge6" class="edge">
<title>εNFA-&gt;NFA</title>
<path fill="none" stroke="#000000" d="M195.3741,-78.4002C185.9613,-78.7977 175.6714,-78.8564 165.9995,-78.5763"/>
<polygon fill="#000000" stroke="#000000" points="165.9587,-75.0714 155.8178,-78.1393 165.6584,-82.065 165.9587,-75.0714"/>
</g>
</g>
</svg>